<svg width="187" height="50" viewBox="0 0 187 50" fill="none" xmlns="http://www.w3.org/2000/svg">
<g id="Layer_7" clip-path="url(#clip0_775_121)">
<path id="Vector" d="M126.274 22.7681C127.084 20.7486 127.854 18.8206 128.629 16.8937C129.715 14.1894 130.806 11.4888 131.884 8.78084C131.984 8.52931 132.102 8.43183 132.377 8.44386C132.924 8.46673 133.475 8.46552 134.023 8.44386C134.307 8.43303 134.392 8.51487 134.388 8.80251C134.372 10.0963 134.381 11.3913 134.381 12.685C134.381 16.5676 134.381 20.4513 134.381 24.3339C134.381 24.9128 134.446 24.8213 133.865 24.8297C133.623 24.8333 133.378 24.808 133.14 24.8357C132.805 24.8754 132.739 24.7358 132.749 24.4313C132.772 23.7465 132.756 23.0617 132.756 22.3757V10.8425C132.736 10.8364 132.716 10.8304 132.696 10.8232C132.461 11.3973 132.223 11.9702 131.99 12.5454C130.381 16.5267 128.77 20.5079 127.171 24.4927C127.072 24.7382 126.968 24.8598 126.683 24.8357C126.305 24.8032 125.844 24.9416 125.561 24.7731C125.259 24.5938 125.218 24.098 125.072 23.7369C123.349 19.4993 121.629 15.2618 119.909 11.0242C119.881 10.9544 119.845 10.8882 119.745 10.8184V11.1903C119.745 15.5927 119.742 19.9964 119.753 24.4001C119.753 24.7382 119.68 24.8815 119.32 24.8357C118.933 24.7876 118.41 24.9994 118.189 24.7479C117.996 24.53 118.128 24.0234 118.128 23.6454C118.127 18.7219 118.13 13.7983 118.118 8.87472C118.118 8.52209 118.212 8.4234 118.559 8.44266C119.08 8.47154 119.605 8.47034 120.127 8.44266C120.423 8.42701 120.546 8.54616 120.648 8.80251C122.282 12.8836 123.925 16.9611 125.567 21.0398C125.788 21.5911 126.017 22.1386 126.274 22.7681Z" fill="white"/>
<path id="Vector_2" d="M75.2077 12.271C75.2077 8.31264 75.2113 4.35549 75.2004 0.397131C75.2004 0.0782 75.2839 -0.00363896 75.5996 0.00237861C76.6195 0.0228384 77.6405 0.0276524 78.6603 0.0011751C79.0341 -0.00845302 79.1454 0.0709789 79.1442 0.468139C79.1296 6.24019 79.1333 12.0122 79.1333 17.7843C79.1333 19.9157 79.1272 22.0471 79.1405 24.1774C79.1429 24.465 79.0643 24.5372 78.78 24.5336C77.7348 24.5168 76.6884 24.5132 75.6432 24.5336C75.3069 24.5408 75.198 24.4686 75.1992 24.1064C75.2137 20.1612 75.2089 16.2161 75.2089 12.271H75.2077Z" fill="white"/>
<path id="Vector_3" d="M137.689 16.6145C137.689 14.027 137.694 11.4394 137.683 8.85067C137.682 8.54618 137.743 8.44027 138.075 8.44148C141.684 8.45351 145.293 8.45231 148.9 8.44388C149.172 8.44388 149.275 8.49443 149.271 8.79411C149.262 9.7846 149.275 9.7846 148.279 9.7846C145.423 9.7846 142.567 9.78941 139.711 9.77738C139.395 9.77617 139.303 9.85681 139.307 10.1745C139.323 11.8871 139.324 13.5997 139.306 15.3123C139.302 15.6409 139.406 15.7011 139.713 15.6999C142.544 15.6878 145.375 15.6999 148.206 15.6842C148.543 15.683 148.634 15.7661 148.627 16.1018C148.606 17.0502 148.622 17.0502 147.668 17.0502C145.017 17.0502 142.365 17.055 139.712 17.043C139.401 17.0418 139.304 17.1104 139.307 17.4353C139.323 19.3249 139.323 21.2156 139.307 23.1051C139.304 23.4192 139.408 23.4758 139.695 23.4746C142.781 23.4649 145.866 23.4746 148.952 23.4601C149.293 23.4589 149.379 23.5492 149.371 23.8814C149.35 24.8273 149.366 24.8273 148.423 24.8273C144.98 24.8273 141.538 24.8213 138.095 24.8357C137.747 24.837 137.678 24.7371 137.68 24.4121C137.693 21.8113 137.687 19.2117 137.687 16.6109L137.689 16.6145Z" fill="white"/>
<path id="Vector_4" d="M167.731 16.647C167.731 14.0462 167.736 11.4466 167.724 8.84581C167.723 8.53651 167.793 8.41375 168.119 8.44263C168.436 8.47032 168.757 8.45708 169.075 8.44504C169.269 8.43782 169.365 8.49559 169.339 8.70019C169.333 8.74953 169.339 8.80128 169.339 8.85183C169.339 14.039 169.335 19.2273 169.346 24.4145C169.346 24.737 169.285 24.8778 168.933 24.8321C168.546 24.7827 168.039 24.9922 167.796 24.7466C167.571 24.5204 167.736 24.0233 167.735 23.6454C167.73 21.3118 167.732 18.977 167.732 16.6434L167.731 16.647Z" fill="white"/>
<path id="Vector_5" d="M110.972 23.6033C110.899 23.5371 110.824 23.4721 110.754 23.4035C109.708 22.3637 108.655 21.3286 107.621 20.2768C107.407 20.0589 107.297 20.0289 107.063 20.2647C105.379 21.9629 103.675 23.6394 101.989 25.3364C101.772 25.5542 101.653 25.5482 101.464 25.3279C101.24 25.0692 100.986 24.8345 100.735 24.5998C100.601 24.4746 100.567 24.388 100.72 24.2375C102.87 22.1073 105.017 19.9723 107.159 17.8324C107.307 17.6844 107.384 17.7037 107.521 17.8397C109.004 19.3236 110.494 20.8027 111.981 22.2842C112.054 22.3565 112.184 22.419 112.046 22.5538C111.718 22.8728 111.397 23.1989 111.072 23.5215C111.046 23.5479 111.013 23.5696 110.972 23.6033Z" fill="white"/>
<path id="Vector_6" d="M106.123 16.4568C106.059 16.5266 106.012 16.5844 105.959 16.6362C104.482 18.1068 103.001 19.5751 101.529 21.0518C101.369 21.2131 101.275 21.189 101.134 21.0386C100.892 20.7786 100.643 20.5223 100.377 20.2864C100.185 20.1167 100.205 20.0096 100.382 19.8363C101.426 18.8133 102.452 17.7711 103.5 16.7517C103.73 16.5278 103.763 16.4123 103.511 16.1668C101.813 14.5035 100.137 12.8162 98.4438 11.1481C98.2369 10.9447 98.1994 10.8184 98.4378 10.6198C98.6821 10.4176 98.9108 10.1913 99.1128 9.94823C99.3051 9.71836 99.4201 9.75807 99.616 9.95545C101.529 11.8726 103.451 13.7802 105.371 15.6902C105.569 15.8876 105.769 16.0837 105.966 16.2823C106.018 16.3341 106.065 16.3906 106.124 16.458L106.123 16.4568Z" fill="white"/>
<path id="Vector_7" d="M114.523 12.8536C114.445 12.9378 114.38 13.0136 114.308 13.0846C113.254 14.1341 112.207 15.1896 111.141 16.2246C110.929 16.4304 110.95 16.5291 111.148 16.7229C112.859 18.409 114.555 20.1095 116.265 21.7957C116.471 21.9979 116.513 22.1218 116.27 22.3168C115.938 22.5864 115.684 23.1472 115.332 23.134C115.021 23.1231 114.725 22.6129 114.428 22.3168C112.562 20.4622 110.702 18.6027 108.828 16.7566C108.616 16.5483 108.569 16.4436 108.81 16.2078C110.256 14.796 111.684 13.3675 113.109 11.9353C113.299 11.7439 113.415 11.691 113.613 11.9232C113.842 12.194 114.112 12.4287 114.364 12.6815C114.416 12.7332 114.464 12.7886 114.523 12.8524V12.8536Z" fill="white"/>
<path id="Vector_8" d="M103.85 9.30315C103.926 9.37295 104.001 9.43553 104.07 9.50413C105.108 10.5355 106.15 11.5621 107.178 12.6032C107.378 12.8054 107.483 12.8367 107.704 12.614C109.352 10.952 111.025 9.31398 112.668 7.64832C112.938 7.37512 113.084 7.38836 113.309 7.66396C113.5 7.89865 113.723 8.11408 113.956 8.31025C114.15 8.47152 114.101 8.56299 113.945 8.71704C111.839 10.8027 109.737 12.892 107.644 14.9898C107.465 15.1691 107.385 15.1282 107.233 14.9753C105.795 13.5347 104.353 12.0977 102.903 10.6703C102.719 10.4898 102.724 10.3875 102.909 10.2238C103.185 9.97832 103.435 9.70753 103.697 9.44757C103.741 9.40304 103.79 9.36092 103.85 9.30435V9.30315Z" fill="white"/>
<path id="Vector_9" d="M98.1407 16.2439C98.1479 15.3653 98.8387 14.6901 99.7266 14.6937C100.619 14.6986 101.302 15.4026 101.29 16.3065C101.278 17.1585 100.583 17.8361 99.7206 17.8373C98.8181 17.8373 98.1334 17.1489 98.1407 16.2439Z" fill="white"/>
<path id="Vector_10" d="M114.998 18.2345C114.125 18.2393 113.411 17.5473 113.397 16.6819C113.383 15.8154 114.12 15.08 114.998 15.0849C115.86 15.0897 116.584 15.8106 116.583 16.6627C116.581 17.5232 115.869 18.2296 115 18.2345H114.998Z" fill="white"/>
<path id="Vector_11" d="M108.791 23.8609C108.793 24.7383 108.099 25.4315 107.222 25.4279C106.369 25.4243 105.671 24.7287 105.666 23.879C105.661 23.0052 106.358 22.3168 107.242 22.3192C108.11 22.3216 108.788 22.998 108.791 23.8609Z" fill="white"/>
<path id="Vector_12" d="M107.639 7.30652C108.513 7.30652 109.185 7.97086 109.186 8.8398C109.186 9.72799 108.506 10.4056 107.618 10.3983C106.753 10.3911 106.068 9.71595 106.059 8.85785C106.049 7.9865 106.74 7.30772 107.639 7.30772V7.30652Z" fill="white"/>
<path id="Vector_13" d="M72.8914 13.8813C71.7736 10.0554 68.2001 7.91311 64.2733 8.6316C62.6426 8.93008 61.255 9.68949 60.2279 11.0747C60.2279 10.4694 60.2183 9.8628 60.2328 9.25743C60.2376 9.02395 60.1638 8.95174 59.9279 8.95415C58.8827 8.96498 57.8363 8.96738 56.7911 8.95415C56.5201 8.95053 56.4512 9.03719 56.4512 9.29955C56.4572 16.8624 56.4572 24.4253 56.4512 31.987C56.4512 32.2313 56.5117 32.3132 56.7681 32.3095C57.8266 32.2951 58.8851 32.2903 59.9437 32.312C60.2824 32.318 60.3913 32.2421 60.3901 31.8823C60.3743 28.888 60.3804 25.8936 60.3828 22.8981C60.3828 22.7729 60.3441 22.6345 60.4445 22.4828C60.7747 22.9618 61.1413 23.3626 61.5804 23.6948C64.3555 25.7985 68.8025 25.3268 71.1881 22.5876C73.4128 20.0337 73.8132 17.0369 72.8914 13.8813ZM67.5589 20.7727C65.7733 22.2385 63.2365 22.0195 61.6288 20.3057C59.7416 18.2946 59.8433 14.9043 61.8006 12.9618C63.8813 10.8966 67.6787 11.3178 68.9114 14.4951C69.1848 15.1992 69.3372 15.9261 69.3191 16.6867C69.2804 18.2814 68.8376 19.722 67.5589 20.7727Z" fill="white"/>
<path id="Vector_14" d="M17.7982 15.4375C17.3385 11.5189 14.4001 8.64246 10.6608 8.51609C8.36231 8.43906 6.36142 9.08415 4.93757 11.0134C4.90974 11.0507 4.88797 11.1036 4.78635 11.082C4.78635 10.526 4.76821 9.96031 4.79361 9.39706C4.80813 9.0685 4.73917 8.93852 4.369 8.95056C3.40121 8.97944 2.43101 8.97342 1.46202 8.95296C1.12692 8.94574 1.01562 9.01916 1.01562 9.38142C1.02772 16.8913 1.02651 24.4001 1.01804 31.91C1.01804 32.2169 1.07853 32.3204 1.40758 32.3132C2.43948 32.2903 3.4738 32.2915 4.50569 32.3132C4.83958 32.3192 4.95088 32.2506 4.94846 31.8883C4.93152 28.8952 4.93878 25.9009 4.93878 22.9077V22.4119C5.38033 23.0196 5.81583 23.4878 6.35537 23.8549C9.58414 26.0477 14.3468 25.0127 16.4965 21.6344C17.7051 19.7352 18.0571 17.6472 17.7982 15.4387V15.4375ZM13.2484 19.3658C11.8113 22.1495 8.13851 22.5623 6.08076 20.1878C3.87059 17.6399 4.66538 13.5275 7.64736 12.0737C8.22077 11.7945 8.83048 11.6982 9.46196 11.7006C11.5983 11.7198 13.2617 13.1388 13.7371 15.3376C14.0396 16.7373 13.9053 18.0937 13.2484 19.3658Z" fill="white"/>
<path id="Vector_15" d="M96.7629 14.4458C96.2524 12.1254 95.0984 10.2672 92.8664 9.21413C91.4934 8.56664 90.0332 8.39574 88.5404 8.54498C86.0254 8.79531 83.964 9.86884 82.5377 11.9955C81.2905 13.8549 80.9578 15.9249 81.2324 18.1045C81.605 21.0531 83.1559 23.1436 85.9213 24.305C87.5617 24.9934 89.2796 25.1174 91.024 24.8923C93.0648 24.6299 94.779 23.749 96.0855 22.1351C96.2452 21.9377 96.2718 21.8282 96.0492 21.6573C95.3222 21.1012 94.6084 20.526 93.8959 19.9507C93.7459 19.8291 93.6612 19.775 93.5088 19.9675C92.241 21.579 90.5328 22.0195 88.5936 21.6874C86.7694 21.3744 85.4072 19.9988 85.1145 18.3295C85.0612 18.0263 85.1253 17.9685 85.4193 17.9709C87.2811 17.9829 89.1429 17.9769 91.0058 17.9769C92.8688 17.9769 94.756 17.9697 96.6299 17.9841C96.919 17.9865 97.0037 17.8987 97.0061 17.6231C97.017 16.5556 96.9928 15.4905 96.7617 14.4446L96.7629 14.4458ZM92.7503 15.1727C91.5139 15.1739 90.2776 15.1727 89.0424 15.1727C87.8073 15.1727 86.6206 15.1667 85.4108 15.1775C85.1483 15.18 85.0673 15.1378 85.1145 14.8454C85.383 13.158 86.8045 11.7608 88.5247 11.5056C89.507 11.36 90.4603 11.4057 91.3421 11.8992C92.5386 12.5683 92.9958 13.6611 93.0612 14.9669C93.0733 15.2221 92.8954 15.1715 92.7515 15.1715L92.7503 15.1727Z" fill="white"/>
<path id="Vector_16" d="M35.391 14.2364C34.8745 12.1278 33.8135 10.3996 31.8271 9.35491C30.3851 8.5967 28.8306 8.38969 27.2302 8.54374C24.7115 8.78565 22.6562 9.86641 21.2166 11.9822C19.9875 13.7899 19.65 15.8178 19.8799 17.9396C20.2029 20.9147 21.7174 23.0786 24.5107 24.2713C26.3942 25.0752 28.3625 25.1655 30.3585 24.7755C32.1526 24.4253 33.62 23.5299 34.7728 22.117C34.9156 21.9413 34.9531 21.8366 34.7365 21.6717C33.9974 21.1096 33.2764 20.5235 32.553 19.9422C32.4223 19.8363 32.3401 19.7665 32.1961 19.9531C31.111 21.3684 29.6206 21.863 27.8907 21.7836C25.9043 21.6933 24.1877 20.26 23.7957 18.3885C23.7256 18.0539 23.797 17.9649 24.1538 17.9685C25.9902 17.9877 27.8266 17.9769 29.6629 17.9769C31.4993 17.9769 33.4373 17.9721 35.3245 17.9829C35.5664 17.9829 35.6632 17.9191 35.6656 17.6748C35.6789 16.5194 35.668 15.3653 35.391 14.2352V14.2364ZM31.4255 15.1787C30.1892 15.1679 28.9528 15.1739 27.7165 15.1739C26.4801 15.1739 25.32 15.1595 24.1224 15.1823C23.7582 15.1896 23.7401 15.0548 23.7982 14.7647C24.2107 12.6874 26.0446 11.3299 28.3068 11.4406C30.3162 11.5381 31.6662 12.8944 31.7352 14.8622C31.7449 15.121 31.6735 15.1799 31.4267 15.1787H31.4255Z" fill="white"/>
<path id="Vector_17" d="M53.2611 12.0472C51.5602 9.56313 49.0778 8.58347 46.558 8.50043C44.2873 8.50163 42.5344 8.93008 41.0005 10.0096C38.6596 11.6572 37.5915 13.968 37.6096 16.7938C37.6241 18.9638 38.3258 20.8906 39.867 22.4359C42.0505 24.6251 44.747 25.3689 47.7532 24.8285C54.616 23.5961 56.162 16.2824 53.2623 12.0472H53.2611ZM48.9351 20.7257C47.2282 22.2506 43.7877 22.2181 42.33 19.5234C41.3247 17.6664 41.3017 15.742 42.3203 13.8837C43.2699 12.1519 44.8365 11.5116 46.7612 11.7403C48.5746 11.9545 49.6803 13.0581 50.2972 14.7033C50.5344 15.3364 50.642 16.0007 50.6372 16.6807C50.5827 18.2417 50.1472 19.6426 48.9339 20.7257H48.9351Z" fill="white"/>
<path id="Vector_18" d="M164.562 13.1172C163.934 11.0543 162.567 9.65224 160.502 8.95179C159.581 8.63888 158.625 8.47641 157.654 8.46557C155.754 8.44511 153.855 8.46076 151.956 8.4415C151.629 8.43789 151.561 8.53417 151.563 8.84348C151.576 11.4431 151.57 14.0427 151.57 16.6422C151.57 19.2418 151.575 21.8679 151.563 24.4795C151.561 24.7624 151.63 24.8394 151.919 24.837C153.551 24.8225 155.182 24.8237 156.814 24.8322C157.568 24.8358 158.316 24.8021 159.059 24.6805C161.86 24.222 163.827 22.7525 164.615 19.9784C165.263 17.7001 165.252 15.3894 164.56 13.1172H164.562ZM163.128 19.4452C162.582 21.703 161.067 22.9126 158.822 23.3061C157.177 23.5949 155.516 23.4313 153.861 23.4686C153.178 23.4842 153.178 23.471 153.178 22.8042V16.6386C153.178 14.4819 153.184 12.3252 153.17 10.1685C153.169 9.86285 153.261 9.78944 153.555 9.79425C154.918 9.81832 156.284 9.79185 157.646 9.83999C158.735 9.8785 159.794 10.1011 160.767 10.6235C162.012 11.2914 162.748 12.3589 163.09 13.6876C163.582 15.5976 163.591 17.5268 163.128 19.4452Z" fill="white"/>
<path id="Vector_19" d="M185.927 24.4615C185.204 22.6778 184.49 20.8906 183.774 19.1034C182.399 15.6698 181.022 12.2374 179.654 8.80133C179.551 8.54377 179.428 8.41861 179.131 8.44268C178.777 8.47156 178.416 8.46795 178.061 8.44268C177.786 8.42342 177.67 8.52572 177.566 8.77966C175.754 13.1978 173.929 17.611 172.107 22.0255C171.731 22.9366 171.36 23.8489 170.957 24.8297C171.435 24.8297 171.844 24.8069 172.248 24.8369C172.578 24.8622 172.733 24.7587 172.855 24.4386C173.413 22.9703 174.012 21.5177 174.578 20.053C174.671 19.8123 174.78 19.7328 175.041 19.734C177.349 19.7449 179.657 19.7461 181.966 19.734C182.234 19.7328 182.333 19.8303 182.424 20.0626C182.884 21.2433 183.362 22.4155 183.838 23.5901C184.004 23.9993 184.075 24.5625 184.384 24.7671C184.695 24.9741 185.248 24.802 185.69 24.8357C186.064 24.8646 186.031 24.7238 185.925 24.4602L185.927 24.4615ZM181.464 18.3933C179.476 18.3849 177.49 18.3885 175.502 18.3897C175.328 18.3897 175.2 18.3945 175.299 18.149C176.367 15.4977 177.429 12.8427 178.494 10.189C178.497 10.1781 178.512 10.1721 178.563 10.1264C179.305 12.0532 180.043 13.9644 180.781 15.8756C181.068 16.6194 181.351 17.3643 181.644 18.1057C181.72 18.2995 181.73 18.3945 181.465 18.3933H181.464Z" fill="white"/>
<path id="Vector_20" d="M183.975 44.4193V45.7203H182.667V44.4193H183.975ZM144.911 44.4193V45.7203H143.604V44.4193H144.911ZM147.515 44.4193V45.7203H146.207V44.4193H147.515ZM150.119 44.4193V45.7203H148.811V44.4193H150.119ZM152.724 44.4193V45.7203H151.416V44.4193H152.724ZM155.327 44.4193V45.7203H154.021V44.4193H155.327ZM157.932 44.4193V45.7203H156.624V44.4193H157.932ZM160.536 44.4193V45.7203H159.23V44.4193H160.536ZM163.141 44.4193V45.7203H161.833V44.4193H163.141ZM165.745 44.4193V45.7203H164.437V44.4193H165.745ZM168.35 44.4193V45.7203H167.042V44.4193H168.35ZM170.954 44.4193V45.7203H169.647V44.4193H170.954ZM173.559 44.4193V45.7203H172.251V44.4193H173.559ZM176.163 44.4193V45.7203H174.856V44.4193H176.163ZM178.768 44.4193V45.7203H177.46V44.4193H178.768ZM181.372 44.4193V45.7203H180.065V44.4193H181.372ZM186.58 44.4193V45.7203H185.273V44.4193H186.58Z" fill="white"/>
<g id="Clip path group">
<mask id="mask0_775_121" style="mask-type:luminance" maskUnits="userSpaceOnUse" x="143" y="44" width="44" height="2">
<g id="clippath">
<path id="Vector_21" d="M183.975 44.4193V45.7203H182.667V44.4193H183.975ZM144.911 44.4193V45.7203H143.604V44.4193H144.911ZM147.515 44.4193V45.7203H146.207V44.4193H147.515ZM150.119 44.4193V45.7203H148.811V44.4193H150.119ZM152.724 44.4193V45.7203H151.416V44.4193H152.724ZM155.327 44.4193V45.7203H154.021V44.4193H155.327ZM157.932 44.4193V45.7203H156.624V44.4193H157.932ZM160.536 44.4193V45.7203H159.23V44.4193H160.536ZM163.141 44.4193V45.7203H161.833V44.4193H163.141ZM165.745 44.4193V45.7203H164.437V44.4193H165.745ZM168.35 44.4193V45.7203H167.042V44.4193H168.35ZM170.954 44.4193V45.7203H169.647V44.4193H170.954ZM173.559 44.4193V45.7203H172.251V44.4193H173.559ZM176.163 44.4193V45.7203H174.856V44.4193H176.163ZM178.768 44.4193V45.7203H177.46V44.4193H178.768ZM181.372 44.4193V45.7203H180.065V44.4193H181.372ZM186.58 44.4193V45.7203H185.273V44.4193H186.58Z" fill="white"/>
</g>
</mask>
<g mask="url(#mask0_775_121)">
<g id="Group">
<path id="Vector_22" d="M187.001 44.4193H143.605V45.7203H187.001V44.4193Z" fill="white"/>
</g>
</g>
</g>
<path id="Vector_23" d="M162.432 47.0562V48.3091H161.173V47.0562H162.432ZM144.865 47.0562V48.3091H143.605V47.0562H144.865ZM147.374 47.0562V48.3091H146.114V47.0562H147.374ZM149.884 47.0562V48.3091H148.625V47.0562H149.884ZM152.394 47.0562V48.3091H151.135V47.0562H152.394ZM154.903 47.0562V48.3091H153.644V47.0562H154.903ZM157.413 47.0562V48.3091H156.154V47.0562H157.413ZM159.924 47.0562V48.3091H158.664V47.0562H159.924Z" fill="white"/>
<g id="Clip path group_2">
<mask id="mask1_775_121" style="mask-type:luminance" maskUnits="userSpaceOnUse" x="143" y="47" width="20" height="2">
<g id="clippath-2">
<path id="Vector_24" d="M162.432 47.0562V48.3091H161.173V47.0562H162.432ZM144.865 47.0562V48.3091H143.605V47.0562H144.865ZM147.374 47.0562V48.3091H146.114V47.0562H147.374ZM149.884 47.0562V48.3091H148.625V47.0562H149.884ZM152.394 47.0562V48.3091H151.135V47.0562H152.394ZM154.903 47.0562V48.3091H153.644V47.0562H154.903ZM157.413 47.0562V48.3091H156.154V47.0562H157.413ZM159.924 47.0562V48.3091H158.664V47.0562H159.924Z" fill="white"/>
</g>
</mask>
<g mask="url(#mask1_775_121)">
<g id="Group_2">
<path id="Vector_25" d="M162.432 47.0562H143.605V48.3091H162.432V47.0562Z" fill="white"/>
</g>
</g>
</g>
<path id="Vector_26" d="M3.02373 44.4193H4.33144V45.7203H3.02373V44.4193ZM42.0871 44.4193H43.3948V45.7203H42.0871V44.4193ZM39.4838 44.4193H40.7915V45.7203H39.4838V44.4193ZM36.8792 44.4193H38.1869V45.7203H36.8792V44.4193ZM34.2747 44.4193H35.5824V45.7203H34.2747V44.4193ZM31.6713 44.4193H32.9778V45.7203H31.6713V44.4193ZM29.0668 44.4193H30.3745V45.7203H29.0668V44.4193ZM26.4622 44.4193H27.7687V45.7203H26.4622V44.4193ZM23.8577 44.4193H25.1654V45.7203H23.8577V44.4193ZM21.2531 44.4193H22.5609V45.7203H21.2531V44.4193ZM18.6486 44.4193H19.9563V45.7203H18.6486V44.4193ZM16.044 44.4193H17.3518V45.7203H16.044V44.4193ZM13.4395 44.4193H14.7472V45.7203H13.4395V44.4193ZM10.8349 44.4193H12.1427V45.7203H10.8349V44.4193ZM8.2304 44.4193H9.53812V45.7203H8.2304V44.4193ZM5.62585 44.4193H6.93357V45.7203H5.62585V44.4193ZM0.417969 44.4193H1.72569V45.7203H0.420388V44.4193H0.417969Z" fill="white"/>
<g id="Clip path group_3">
<mask id="mask2_775_121" style="mask-type:luminance" maskUnits="userSpaceOnUse" x="0" y="44" width="44" height="2">
<g id="clippath-4">
<path id="Vector_27" d="M3.02373 44.4193H4.33144V45.7203H3.02373V44.4193ZM42.0871 44.4193H43.3948V45.7203H42.0871V44.4193ZM39.4838 44.4193H40.7915V45.7203H39.4838V44.4193ZM36.8792 44.4193H38.1869V45.7203H36.8792V44.4193ZM34.2747 44.4193H35.5824V45.7203H34.2747V44.4193ZM31.6713 44.4193H32.9778V45.7203H31.6713V44.4193ZM29.0668 44.4193H30.3745V45.7203H29.0668V44.4193ZM26.4622 44.4193H27.7687V45.7203H26.4622V44.4193ZM23.8577 44.4193H25.1654V45.7203H23.8577V44.4193ZM21.2531 44.4193H22.5609V45.7203H21.2531V44.4193ZM18.6486 44.4193H19.9563V45.7203H18.6486V44.4193ZM16.044 44.4193H17.3518V45.7203H16.044V44.4193ZM13.4395 44.4193H14.7472V45.7203H13.4395V44.4193ZM10.8349 44.4193H12.1427V45.7203H10.8349V44.4193ZM8.2304 44.4193H9.53812V45.7203H8.2304V44.4193ZM5.62585 44.4193H6.93357V45.7203H5.62585V44.4193ZM0.417969 44.4193H1.72569V45.7203H0.420388V44.4193H0.417969Z" fill="white"/>
</g>
</mask>
<g mask="url(#mask2_775_121)">
<g id="Group_3">
<path id="Vector_28" d="M43.3954 44.4193H0V45.7203H43.3954V44.4193Z" fill="white"/>
</g>
</g>
</g>
<path id="Vector_29" d="M24.5684 47.0562H25.8277V48.3091H24.5684V47.0562ZM42.1361 47.0562H43.3954V48.3091H42.1361V47.0562ZM39.6271 47.0562H40.8864V48.3091H39.6271V47.0562ZM37.1169 47.0562H38.3762V48.3091H37.1169V47.0562ZM34.6067 47.0562H35.866V48.3091H34.6067V47.0562ZM32.0977 47.0562H33.357V48.3091H32.0977V47.0562ZM29.5875 47.0562H30.8469V48.3091H29.5875V47.0562ZM27.0773 47.0562H28.3367V48.3091H27.0773V47.0562Z" fill="white"/>
<g id="Clip path group_4">
<mask id="mask3_775_121" style="mask-type:luminance" maskUnits="userSpaceOnUse" x="24" y="47" width="20" height="2">
<g id="clippath-6">
<path id="Vector_30" d="M24.5684 47.0562H25.8277V48.3091H24.5684V47.0562ZM42.1361 47.0562H43.3954V48.3091H42.1361V47.0562ZM39.6271 47.0562H40.8864V48.3091H39.6271V47.0562ZM37.1169 47.0562H38.3762V48.3091H37.1169V47.0562ZM34.6067 47.0562H35.866V48.3091H34.6067V47.0562ZM32.0977 47.0562H33.357V48.3091H32.0977V47.0562ZM29.5875 47.0562H30.8469V48.3091H29.5875V47.0562ZM27.0773 47.0562H28.3367V48.3091H27.0773V47.0562Z" fill="white"/>
</g>
</mask>
<g mask="url(#mask3_775_121)">
<g id="Group_4">
<path id="Vector_31" d="M43.3954 47.0562H24.5684V48.3091H43.3954V47.0562Z" fill="white"/>
</g>
</g>
</g>
<path id="Vector_32" d="M45.3301 49.8797V38.0672H57.1491V39.8231H47.5741V43.4698H52.9768V45.198H47.5741V49.8797H45.3313H45.3301Z" fill="white"/>
<path id="Vector_33" d="M52.9219 49.8797L59.7798 38.0816H61.8291L68.8516 49.8797H66.42L64.8764 47.12H56.6793L55.1623 49.8797H52.9219ZM57.6217 45.4218H63.9195L60.7633 39.8086L57.6205 45.4218H57.6217Z" fill="white"/>
<path id="Vector_34" d="M80.6825 39.8412H72.3088V48.1996H80.6825V45.3545L82.9484 45.7805V47.1826C82.9484 48.273 82.7427 49.0156 82.3338 49.4091C81.9237 49.8039 81.1471 50 80.0051 50H72.9584C71.8164 50 71.0446 49.8099 70.6442 49.4296C70.2438 49.0493 70.043 48.3007 70.043 47.1814V40.8991C70.043 39.7906 70.245 39.0408 70.6515 38.6509C71.0567 38.261 71.8261 38.0672 72.9596 38.0672H80.0063C81.1483 38.0672 81.9249 38.267 82.335 38.6653C82.7451 39.0637 82.9496 39.8087 82.9496 40.8991V42.0268L80.6838 42.3974V39.84L80.6825 39.8412Z" fill="white"/>
<path id="Vector_35" d="M98.8086 40.9471C98.8086 39.8664 99.0142 39.1298 99.4243 38.7339C99.8344 38.3391 100.601 38.1417 101.724 38.1417H110.306C111.428 38.1417 112.194 38.3391 112.606 38.7339C113.016 39.1286 113.221 39.8664 113.221 40.9471V47.1705C113.221 48.2512 113.018 48.9866 112.612 49.3765C112.205 49.7665 111.437 49.9626 110.306 49.9626H101.724C100.583 49.9626 99.8127 49.7701 99.411 49.3837C99.0094 48.9986 98.8086 48.2609 98.8086 47.1705V40.9471ZM101.054 48.1778H110.977V39.8989H101.054V48.1778Z" fill="white"/>
<path id="Vector_36" d="M114.777 49.9109V38.0912H124.33C125.214 38.0912 125.852 38.2705 126.239 38.6292C126.626 38.9878 126.821 39.5715 126.821 40.3791V43.0208C126.821 43.8199 126.627 44.3964 126.239 44.7502C125.85 45.1041 125.214 45.281 124.33 45.281H122.756L127.998 49.9109H125L120.264 45.281H117.021V49.9109H114.775H114.777ZM123.345 39.8206H117.022V43.6334H123.345C123.847 43.6334 124.185 43.5515 124.358 43.3879C124.531 43.2242 124.618 42.9064 124.618 42.4347V41.0181C124.618 40.5825 124.526 40.2744 124.344 40.0926C124.162 39.9109 123.829 39.8206 123.345 39.8206Z" fill="white"/>
<path id="Vector_37" d="M133.422 49.9651V44.7659L127.176 38.0576H129.919L134.691 43.2158L139.24 38.0576H141.889L135.669 44.7659V49.9651H133.422Z" fill="white"/>
<path id="Vector_38" d="M91.7763 39.8989V49.9614H89.5455V39.8989H83.9336V38.1417H97.416V39.8989H91.7763Z" fill="white"/>
<path id="Vector_39" d="M84.0503 38.1706L83.841 37.0008C83.7926 36.73 83.945 36.4508 84.1821 36.3762L96.3895 32.5731C96.6266 32.4985 96.8577 32.6573 96.9061 32.9281L97.1154 34.098L84.0503 38.1706Z" fill="white"/>
<path id="Vector_40" d="M89.4543 34.8935L87.9941 35.352L89.1603 36.4412L90.6205 35.9815L89.4543 34.8935Z" fill="white"/>
<path id="Vector_41" d="M92.3312 33.9644L90.8711 34.4229L92.0373 35.5109L93.4974 35.0523L92.3312 33.9644Z" fill="white"/>
<path id="Vector_42" d="M86.5707 35.8177L85.1094 36.2763L86.2756 37.3643L87.7369 36.9057L86.5707 35.8177Z" fill="white"/>
<path id="Vector_43" d="M95.4535 33.0437L93.9922 33.5022L95.1584 34.5914L96.6197 34.1317L95.4535 33.0437Z" fill="white"/>
<path id="Vector_44" d="M93.2715 38.2946L94.803 38.2874L94.0276 39.6775L92.4961 39.6859L93.2715 38.2946Z" fill="white"/>
<path id="Vector_45" d="M90.6556 38.2657L92.1871 38.2585L91.4116 39.6497L89.8789 39.657L90.6556 38.2657Z" fill="white"/>
<path id="Vector_46" d="M95.6817 38.273L97.2144 38.2645L96.439 39.6558L94.9062 39.663L95.6817 38.273Z" fill="white"/>
<path id="Vector_47" d="M88.084 38.2681L89.6168 38.2609L88.8413 39.651L87.3086 39.6594L88.084 38.2681Z" fill="white"/>
<path id="Vector_48" d="M84.3004 39.8567C84.3004 39.8567 83.7754 39.935 83.7754 39.1479V36.7866C83.7754 36.7866 83.7984 36.369 84.1915 36.369C84.5847 36.369 84.7395 36.5964 85.14 37.2403C85.5416 37.8854 86.4973 39.3296 86.4973 39.3296C86.4973 39.3296 86.7792 39.7689 86.363 39.8664L84.2992 39.8567H84.3004Z" fill="white"/>
<path id="Vector_49" d="M85.1365 38.5209C85.1365 38.6906 84.9986 38.8278 84.828 38.8278C84.6574 38.8278 84.5195 38.6906 84.5195 38.5209C84.5195 38.3512 84.6574 38.214 84.828 38.214C84.9986 38.214 85.1365 38.3512 85.1365 38.5209Z" fill="white"/>
</g>
<defs>
<clipPath id="clip0_775_121">
<rect width="187" height="50" fill="white"/>
</clipPath>
</defs>
</svg>
